<svg width="1070" height="1538" viewBox="0 0 1070 1538" fill="none" xmlns="http://www.w3.org/2000/svg">
<path fill-rule="evenodd" clip-rule="evenodd" d="M1005.91 57.03C1082.49 172.86 995.54 324.56 1012.26 462.41C1020.96 534.09 1040.32 620.51 1055.36 691.13C1071.14 765.16 1075.09 841.78 1057.31 915.36C1044.3 969.22 1009.02 1010.48 979.25 1055.83C951.07 1098.75 924.52 1143.17 903.94 1190.3C882.08 1240.37 866.73 1292.87 840.42 1341.07C804.37 1407.11 748.24 1460.3 683.91 1498.67C620.24 1536.64 542.89 1539.78 470.72 1536.98C355.2 1532.5 256.26 1454.5 197.3 1359.23C169.18 1313.79 146.7 1261.16 139.46 1207.88C131.4 1148.54 149.88 1082.74 113.53 1029.94C63.5 957.26 6.14002 905.1 0.570021 817.03C-2.86998 762.61 9.16002 708.82 35.44 661.03C62.41 612 104.68 572.71 127.14 521C161.23 442.53 189.31 363.64 196.31 277.95C202.58 201.24 205.21 124.67 256.57 62.36C326.86 -22.9 520.38 8.52004 630.81 12.26C745.83 16.15 942.44 -38.97 1005.91 57.03Z" fill="#CAEBFF"/>
</svg>
