<svg width="974" height="1475" viewBox="0 0 974 1475" fill="none" xmlns="http://www.w3.org/2000/svg">
<path fill-rule="evenodd" clip-rule="evenodd" d="M897.97 97.73C974.55 213.56 865.25 311.89 881.97 449.73C890.67 521.41 925.96 576.37 951.97 643.73C973.92 700.57 982.97 762.09 958.97 819.81C948.75 844.38 931.94 859.75 917.04 880.45C901.8 901.62 896.87 929.16 893.08 954.38C883.91 1015.43 905.97 1059.72 891.97 1137.72C882.13 1192.55 826.12 1245.04 786.08 1285.57C764.51 1307.4 737.88 1323.56 716.62 1345.69C692.22 1371.08 685.2 1405.93 661.87 1432.13C636.57 1460.55 597.21 1473.26 559.17 1474.11C442.56 1476.72 337.1 1412.34 259.1 1330.13C220.22 1289.15 189.23 1242.03 150.4 1200.91C107.84 1155.84 61.2798 1113.02 25.9698 1061.73C-24.0602 989.04 19.5298 873.8 13.9698 785.73C8.32977 696.48 -23.7602 592.03 33.9698 523.73C81.3198 467.71 198.04 474.15 226.47 406.53C262.6 320.58 222.08 232.32 224.65 144.27C227.43 48.69 297.18 -4.20999 390.05 0.260011C459.28 3.59001 526.81 25.38 595.96 27.72C710.98 31.61 834.49 1.72001 897.96 97.72L897.97 97.73Z" fill="#CAEBFF"/>
</svg>
