<svg width="1095" height="1542" viewBox="0 0 1095 1542" fill="none" xmlns="http://www.w3.org/2000/svg">
<path fill-rule="evenodd" clip-rule="evenodd" d="M1007.42 80.82C1084 196.65 976.82 354.09 993.54 491.93C1002.24 563.61 1065.92 616.53 1080.96 687.15C1096.74 761.18 1100.69 837.8 1082.91 911.39C1064.39 988.06 1012.08 1049.02 976.54 1119.44C927.88 1215.89 913.97 1333.64 833.49 1405.71C746.97 1483.2 625.14 1567.56 514.06 1533.62C395.08 1497.27 362.91 1341.74 291.27 1240.03C242.23 1170.43 205.16 1096.72 156.88 1026.58C106.86 953.88 5.86002 905.33 0.290024 817.26C-5.34998 728.01 71.32 654.04 129.05 585.74C176.4 529.72 276.01 525.07 304.43 457.45C356.95 332.5 264.42 163.18 350.63 58.59C420.91 -26.68 563.73 5.14003 674.16 8.88003C789.18 12.77 943.95 -15.19 1007.42 80.82Z" fill="#CAEBFF"/>
</svg>
