<svg width="28" height="28" viewBox="0 0 28 28" fill="none" xmlns="http://www.w3.org/2000/svg">
<g id="users-profiles-02">
<path id="Icon" d="M21.2 15.6857C22.4674 16.6326 23.6 19.0167 23.6 20.4857C23.6 20.9433 23.2661 21.3143 22.8543 21.3143H22.4M17.6 11.8045C18.4199 11.3302 18.9715 10.4438 18.9715 9.42859C18.9715 8.41334 18.4199 7.52693 17.6 7.05268M5.14579 21.3143H18.2828C18.6947 21.3143 19.0286 20.9433 19.0286 20.4857C19.0286 17.6091 16.6253 15.2771 11.7143 15.2771C6.80329 15.2771 4.40002 17.6091 4.40002 20.4857C4.40002 20.9433 4.73392 21.3143 5.14579 21.3143ZM14.4572 9.42859C14.4572 10.9434 13.2291 12.1714 11.7143 12.1714C10.1995 12.1714 8.97145 10.9434 8.97145 9.42859C8.97145 7.91375 10.1995 6.68573 11.7143 6.68573C13.2291 6.68573 14.4572 7.91375 14.4572 9.42859Z" stroke="#858C96" stroke-width="1.4" stroke-linecap="round"/>
</g>
</svg>
