<svg width="34" height="20" viewBox="0 0 34 20" fill="none" xmlns="http://www.w3.org/2000/svg">
<path d="M0 10C0 4.47715 4.47715 0 10 0H24C29.5228 0 34 4.47715 34 10V10C34 15.5228 29.5228 20 24 20H10C4.47715 20 0 15.5228 0 10V10Z" fill="#FFCDAA"/>
<path d="M12.8722 14H11.6622V10.97H8.33223V14H7.13223V6.91H8.33223V9.84H11.6622V6.91H12.8722V14ZM15.6241 12.7C15.8908 12.9733 16.2141 13.11 16.5941 13.11C16.9741 13.11 17.2941 12.9733 17.5541 12.7C17.8208 12.4267 17.9541 12.0467 17.9541 11.56C17.9541 11.08 17.8208 10.7067 17.5541 10.44C17.2941 10.1667 16.9741 10.03 16.5941 10.03C16.2141 10.03 15.8908 10.1667 15.6241 10.44C15.3641 10.7067 15.2341 11.08 15.2341 11.56C15.2341 12.04 15.3641 12.42 15.6241 12.7ZM16.5941 8.98C17.3274 8.98 17.9308 9.22333 18.4041 9.71C18.8841 10.1967 19.1241 10.8133 19.1241 11.56C19.1241 12.3067 18.8841 12.9267 18.4041 13.42C17.9308 13.9067 17.3274 14.15 16.5941 14.15C15.8674 14.15 15.2641 13.9067 14.7841 13.42C14.3108 12.9267 14.0741 12.3067 14.0741 11.56C14.0741 10.8133 14.3108 10.1967 14.7841 9.71C15.2641 9.22333 15.8674 8.98 16.5941 8.98ZM19.8151 12.68L20.8251 12.4C20.8451 12.6333 20.9418 12.83 21.1151 12.99C21.2885 13.15 21.5218 13.23 21.8151 13.23C22.0418 13.23 22.2185 13.1767 22.3451 13.07C22.4785 12.9633 22.5451 12.83 22.5451 12.67C22.5451 12.39 22.3551 12.21 21.9751 12.13L21.2551 11.97C20.8351 11.8767 20.5118 11.7033 20.2851 11.45C20.0585 11.1967 19.9451 10.8967 19.9451 10.55C19.9451 10.1233 20.1185 9.75667 20.4651 9.45C20.8118 9.13667 21.2351 8.98 21.7351 8.98C22.0551 8.98 22.3385 9.02667 22.5851 9.12C22.8318 9.21333 23.0218 9.33667 23.1551 9.49C23.2951 9.63667 23.4018 9.78 23.4751 9.92C23.5485 10.06 23.5951 10.2 23.6151 10.34L22.6351 10.62C22.6085 10.4333 22.5218 10.2667 22.3751 10.12C22.2351 9.96667 22.0218 9.89 21.7351 9.89C21.5351 9.89 21.3685 9.94667 21.2351 10.06C21.1018 10.1667 21.0351 10.2967 21.0351 10.45C21.0351 10.7233 21.1985 10.8933 21.5251 10.96L22.2651 11.11C22.7185 11.21 23.0651 11.39 23.3051 11.65C23.5451 11.91 23.6651 12.2233 23.6651 12.59C23.6651 12.9967 23.5018 13.36 23.1751 13.68C22.8551 13.9933 22.4051 14.15 21.8251 14.15C21.4918 14.15 21.1918 14.1 20.9251 14C20.6651 13.9 20.4585 13.7733 20.3051 13.62C20.1585 13.46 20.0418 13.3033 19.9551 13.15C19.8751 12.99 19.8285 12.8333 19.8151 12.68ZM26.2854 7.64V9.13H27.2954V10.16H26.2854V12.42C26.2854 12.6333 26.3354 12.79 26.4354 12.89C26.5354 12.9833 26.6921 13.03 26.9054 13.03C27.0388 13.03 27.1721 13.0167 27.3054 12.99V13.95C27.1321 14.0233 26.8954 14.06 26.5954 14.06C26.1421 14.06 25.7854 13.9333 25.5254 13.68C25.2654 13.42 25.1354 13.0633 25.1354 12.61V10.16H24.2354V9.13H24.4854C24.7321 9.13 24.9188 9.06 25.0454 8.92C25.1721 8.78 25.2354 8.59667 25.2354 8.37V7.64H26.2854Z" fill="#CA1E14"/>
<path d="M10 1H24V-1H10V1ZM24 19H10V21H24V19ZM10 19C5.02944 19 1 14.9706 1 10H-1C-1 16.0751 3.92487 21 10 21V19ZM33 10C33 14.9706 28.9706 19 24 19V21C30.0751 21 35 16.0751 35 10H33ZM24 1C28.9706 1 33 5.02944 33 10H35C35 3.92487 30.0751 -1 24 -1V1ZM10 -1C3.92487 -1 -1 3.92487 -1 10H1C1 5.02944 5.02944 1 10 1V-1Z" fill="#CA1E14"/>
</svg>
