<svg width="44" height="20" viewBox="0 0 44 20" fill="none" xmlns="http://www.w3.org/2000/svg">
<path d="M0 10C0 4.47715 4.47715 0 10 0H34C39.5228 0 44 4.47715 44 10C44 15.5228 39.5228 20 34 20H10C4.47715 20 0 15.5228 0 10Z" fill="#F3F5F6"/>
<path d="M8.25457 14H7.03457V6.91H8.25457V14ZM11.0145 11.19V14H9.85449V9.13H10.9845V9.78C11.1378 9.51333 11.3412 9.31667 11.5945 9.19C11.8545 9.05667 12.1312 8.99 12.4245 8.99C12.9978 8.99 13.4345 9.17 13.7345 9.53C14.0345 9.89 14.1845 10.3533 14.1845 10.92V14H13.0245V11.12C13.0245 10.7933 12.9445 10.5333 12.7845 10.34C12.6245 10.14 12.3712 10.04 12.0245 10.04C11.7045 10.04 11.4545 10.15 11.2745 10.37C11.1012 10.5833 11.0145 10.8567 11.0145 11.19ZM19.9479 9.13L18.0379 14H16.8779L14.8979 9.13H16.1779L17.4679 12.61L18.7279 9.13H19.9479ZM21.9518 14H20.8018V9.13H21.9518V14ZM20.8418 7.95C20.6951 7.80333 20.6218 7.62667 20.6218 7.42C20.6218 7.21333 20.6951 7.03667 20.8418 6.89C20.9884 6.73667 21.1651 6.66 21.3718 6.66C21.5851 6.66 21.7651 6.73333 21.9118 6.88C22.0584 7.02667 22.1318 7.20667 22.1318 7.42C22.1318 7.62667 22.0584 7.80333 21.9118 7.95C21.7651 8.09667 21.5851 8.17 21.3718 8.17C21.1651 8.17 20.9884 8.09667 20.8418 7.95ZM24.9182 7.64V9.13H25.9282V10.16H24.9182V12.42C24.9182 12.6333 24.9682 12.79 25.0682 12.89C25.1682 12.9833 25.3249 13.03 25.5382 13.03C25.6716 13.03 25.8049 13.0167 25.9382 12.99V13.95C25.7649 14.0233 25.5282 14.06 25.2282 14.06C24.7749 14.06 24.4182 13.9333 24.1582 13.68C23.8982 13.42 23.7682 13.0633 23.7682 12.61V10.16H22.8682V9.13H23.1182C23.3649 9.13 23.5516 9.06 23.6782 8.92C23.8049 8.78 23.8682 8.59667 23.8682 8.37V7.64H24.9182ZM27.8813 11.03H30.2713C30.258 10.7233 30.148 10.4667 29.9413 10.26C29.7413 10.0533 29.4513 9.95 29.0713 9.95C28.7246 9.95 28.4446 10.06 28.2313 10.28C28.018 10.4933 27.9013 10.7433 27.8813 11.03ZM30.4013 12.3L31.3813 12.61C31.2413 13.0567 30.978 13.4267 30.5913 13.72C30.2113 14.0067 29.7413 14.15 29.1813 14.15C28.488 14.15 27.898 13.9133 27.4113 13.44C26.9313 12.9667 26.6913 12.3333 26.6913 11.54C26.6913 10.7933 26.9246 10.18 27.3913 9.7C27.8646 9.22 28.4213 8.98 29.0613 8.98C29.808 8.98 30.3913 9.21 30.8113 9.67C31.2313 10.1233 31.4413 10.7367 31.4413 11.51C31.4413 11.7167 31.4313 11.84 31.4113 11.88H27.8513C27.8646 12.2467 27.998 12.55 28.2513 12.79C28.5113 13.03 28.8213 13.15 29.1813 13.15C29.808 13.15 30.2146 12.8667 30.4013 12.3ZM33.3298 11.55C33.3298 12.0167 33.4498 12.3933 33.6898 12.68C33.9298 12.96 34.2465 13.1 34.6398 13.1C35.0198 13.1 35.3298 12.9567 35.5698 12.67C35.8098 12.3833 35.9298 12.0067 35.9298 11.54C35.9298 11.08 35.8131 10.7133 35.5798 10.44C35.3465 10.1667 35.0365 10.03 34.6498 10.03C34.2631 10.03 33.9465 10.17 33.6998 10.45C33.4531 10.7233 33.3298 11.09 33.3298 11.55ZM37.0498 6.76V13.11C37.0498 13.4367 37.0665 13.7333 37.0998 14H35.9898C35.9565 13.8133 35.9398 13.6033 35.9398 13.37C35.8198 13.59 35.6331 13.77 35.3798 13.91C35.1265 14.05 34.8365 14.12 34.5098 14.12C33.8165 14.12 33.2531 13.8767 32.8198 13.39C32.3865 12.9033 32.1698 12.29 32.1698 11.55C32.1698 10.8367 32.3865 10.2333 32.8198 9.74C33.2598 9.24667 33.8165 9 34.4898 9C34.8765 9 35.1865 9.07 35.4198 9.21C35.6598 9.35 35.8265 9.51333 35.9198 9.7V6.76H37.0498Z" fill="#6A7280"/>
<path d="M10 1H34V-1H10V1ZM34 19H10V21H34V19ZM10 19C5.02944 19 1 14.9706 1 10H-1C-1 16.0751 3.92487 21 10 21V19ZM43 10C43 14.9706 38.9706 19 34 19V21C40.0751 21 45 16.0751 45 10H43ZM34 1C38.9706 1 43 5.02944 43 10H45C45 3.92487 40.0751 -1 34 -1V1ZM10 -1C3.92487 -1 -1 3.92487 -1 10H1C1 5.02944 5.02944 1 10 1V-1Z" fill="#6A7280"/>
</svg>
