<svg width="47" height="20" viewBox="0 0 47 20" fill="none" xmlns="http://www.w3.org/2000/svg">
<path d="M0 10C0 4.47715 4.47715 0 10 0H37C42.5229 0 47 4.47715 47 10C47 15.5228 42.5228 20 37 20H10C4.47715 20 0 15.5228 0 10Z" fill="#EEF4FA"/>
<path d="M8.27461 10.17H9.52461C9.90461 10.17 10.2013 10.0733 10.4146 9.88C10.6346 9.68 10.7446 9.41333 10.7446 9.08C10.7446 8.74 10.6346 8.47 10.4146 8.27C10.2013 8.07 9.90461 7.97 9.52461 7.97H8.27461V10.17ZM9.70461 11.23H8.27461V14H7.07461V6.91H9.70461C10.3779 6.91 10.9213 7.11333 11.3346 7.52C11.7546 7.92667 11.9646 8.44333 11.9646 9.07C11.9646 9.70333 11.7546 10.2233 11.3346 10.63C10.9213 11.03 10.3779 11.23 9.70461 11.23ZM15.7133 9.1V10.28C15.5799 10.26 15.4533 10.25 15.3333 10.25C14.4599 10.25 14.0233 10.7267 14.0233 11.68V14H12.8633V9.13H13.9933V9.91C14.1066 9.65 14.2899 9.44667 14.5433 9.3C14.7966 9.14667 15.0833 9.07 15.4033 9.07C15.5099 9.07 15.6133 9.08 15.7133 9.1ZM17.4428 11.03H19.8328C19.8195 10.7233 19.7095 10.4667 19.5028 10.26C19.3028 10.0533 19.0128 9.95 18.6328 9.95C18.2861 9.95 18.0061 10.06 17.7928 10.28C17.5795 10.4933 17.4628 10.7433 17.4428 11.03ZM19.9628 12.3L20.9428 12.61C20.8028 13.0567 20.5395 13.4267 20.1528 13.72C19.7728 14.0067 19.3028 14.15 18.7428 14.15C18.0495 14.15 17.4595 13.9133 16.9728 13.44C16.4928 12.9667 16.2528 12.3333 16.2528 11.54C16.2528 10.7933 16.4861 10.18 16.9528 9.7C17.4261 9.22 17.9828 8.98 18.6228 8.98C19.3695 8.98 19.9528 9.21 20.3728 9.67C20.7928 10.1233 21.0028 10.7367 21.0028 11.51C21.0028 11.7167 20.9928 11.84 20.9728 11.88H17.4128C17.4261 12.2467 17.5595 12.55 17.8128 12.79C18.0728 13.03 18.3828 13.15 18.7428 13.15C19.3695 13.15 19.7761 12.8667 19.9628 12.3ZM21.6813 12.68L22.6913 12.4C22.7113 12.6333 22.808 12.83 22.9813 12.99C23.1547 13.15 23.388 13.23 23.6813 13.23C23.908 13.23 24.0847 13.1767 24.2113 13.07C24.3447 12.9633 24.4113 12.83 24.4113 12.67C24.4113 12.39 24.2213 12.21 23.8413 12.13L23.1213 11.97C22.7013 11.8767 22.378 11.7033 22.1513 11.45C21.9247 11.1967 21.8113 10.8967 21.8113 10.55C21.8113 10.1233 21.9847 9.75667 22.3313 9.45C22.678 9.13667 23.1013 8.98 23.6013 8.98C23.9213 8.98 24.2047 9.02667 24.4513 9.12C24.698 9.21333 24.888 9.33667 25.0213 9.49C25.1613 9.63667 25.268 9.78 25.3413 9.92C25.4147 10.06 25.4613 10.2 25.4813 10.34L24.5013 10.62C24.4747 10.4333 24.388 10.2667 24.2413 10.12C24.1013 9.96667 23.888 9.89 23.6013 9.89C23.4013 9.89 23.2347 9.94667 23.1013 10.06C22.968 10.1667 22.9013 10.2967 22.9013 10.45C22.9013 10.7233 23.0647 10.8933 23.3913 10.96L24.1313 11.11C24.5847 11.21 24.9313 11.39 25.1713 11.65C25.4113 11.91 25.5313 12.2233 25.5313 12.59C25.5313 12.9967 25.368 13.36 25.0413 13.68C24.7213 13.9933 24.2713 14.15 23.6913 14.15C23.358 14.15 23.058 14.1 22.7913 14C22.5313 13.9 22.3247 13.7733 22.1713 13.62C22.0247 13.46 21.908 13.3033 21.8213 13.15C21.7413 12.99 21.6947 12.8333 21.6813 12.68ZM27.4623 11.03H29.8523C29.839 10.7233 29.729 10.4667 29.5223 10.26C29.3223 10.0533 29.0323 9.95 28.6523 9.95C28.3057 9.95 28.0257 10.06 27.8123 10.28C27.599 10.4933 27.4823 10.7433 27.4623 11.03ZM29.9823 12.3L30.9623 12.61C30.8223 13.0567 30.559 13.4267 30.1723 13.72C29.7923 14.0067 29.3223 14.15 28.7623 14.15C28.069 14.15 27.479 13.9133 26.9923 13.44C26.5123 12.9667 26.2723 12.3333 26.2723 11.54C26.2723 10.7933 26.5057 10.18 26.9723 9.7C27.4457 9.22 28.0023 8.98 28.6423 8.98C29.389 8.98 29.9723 9.21 30.3923 9.67C30.8123 10.1233 31.0223 10.7367 31.0223 11.51C31.0223 11.7167 31.0123 11.84 30.9923 11.88H27.4323C27.4457 12.2467 27.579 12.55 27.8323 12.79C28.0923 13.03 28.4023 13.15 28.7623 13.15C29.389 13.15 29.7957 12.8667 29.9823 12.3ZM33.2909 11.19V14H32.1309V9.13H33.2609V9.78C33.4142 9.51333 33.6175 9.31667 33.8709 9.19C34.1309 9.05667 34.4075 8.99 34.7009 8.99C35.2742 8.99 35.7109 9.17 36.0109 9.53C36.3109 9.89 36.4609 10.3533 36.4609 10.92V14H35.3009V11.12C35.3009 10.7933 35.2209 10.5333 35.0609 10.34C34.9009 10.14 34.6475 10.04 34.3009 10.04C33.9809 10.04 33.7309 10.15 33.5509 10.37C33.3775 10.5833 33.2909 10.8567 33.2909 11.19ZM39.343 7.64V9.13H40.353V10.16H39.343V12.42C39.343 12.6333 39.393 12.79 39.493 12.89C39.593 12.9833 39.7497 13.03 39.963 13.03C40.0964 13.03 40.2297 13.0167 40.363 12.99V13.95C40.1897 14.0233 39.953 14.06 39.653 14.06C39.1997 14.06 38.843 13.9333 38.583 13.68C38.323 13.42 38.193 13.0633 38.193 12.61V10.16H37.293V9.13H37.543C37.7897 9.13 37.9764 9.06 38.103 8.92C38.2297 8.78 38.293 8.59667 38.293 8.37V7.64H39.343Z" fill="#2E7BA5"/>
<path d="M10 1H37V-1H10V1ZM37 19H10V21H37V19ZM10 19C5.02944 19 1 14.9706 1 10H-1C-1 16.0751 3.92487 21 10 21V19ZM46 10C46 14.9706 41.9706 19 37 19V21C43.0751 21 48 16.0751 48 10H46ZM37 1C41.9706 1 46 5.02944 46 10H48C48 3.92487 43.0751 -1 37 -1V1ZM10 -1C3.92487 -1 -1 3.92487 -1 10H1C1 5.02944 5.02944 1 10 1V-1Z" fill="#2E7BA5"/>
</svg>
