<svg width="36" height="36" viewBox="0 0 36 36" fill="none" xmlns="http://www.w3.org/2000/svg">
<rect width="36" height="36" rx="18" fill="#003B5F"/>
<path d="M18 10.6667C18.4378 10.6667 18.8712 10.7529 19.2756 10.9204C19.68 11.0879 20.0475 11.3334 20.357 11.643C20.6666 11.9525 20.9121 12.32 21.0796 12.7244C21.2471 13.1288 21.3333 13.5623 21.3333 14V16.6667C21.3333 17.5507 20.9822 18.3986 20.357 19.0237C19.7319 19.6488 18.8841 20 18 20C17.116 20 16.2681 19.6488 15.643 19.0237C15.0179 18.3986 14.6667 17.5507 14.6667 16.6667V14C14.6667 13.1159 15.0179 12.2681 15.643 11.643C16.2681 11.0179 17.116 10.6667 18 10.6667ZM12.0367 17.3333H13.38C13.5415 18.4432 14.0973 19.4578 14.9455 20.1915C15.7937 20.9252 16.8778 21.329 17.9993 21.329C19.1209 21.329 20.205 20.9252 21.0532 20.1915C21.9014 19.4578 22.4572 18.4432 22.6187 17.3333H23.9627C23.8111 18.6858 23.2044 19.9466 22.2422 20.909C21.2799 21.8714 20.0191 22.4782 18.6667 22.63V25.3333H17.3333V22.63C15.9808 22.4784 14.7199 21.8716 13.7575 20.9092C12.7951 19.9468 12.1883 18.6859 12.0367 17.3333Z" fill="white"/>
</svg>
