<svg width="17" height="16" viewBox="0 0 17 16" fill="none" xmlns="http://www.w3.org/2000/svg">
	<rect x="0.666687" width="16" height="16" rx="8" fill="#FAF1E8"/>
	<g clip-path="url(#clip0_131_4780)">
		<path d="M10.5105 10.4329C10.0709 10.6817 9.5854 10.8384 9.08338 10.8937V12.5833H8.25005V10.8937C7.40469 10.799 6.61662 10.4197 6.01512 9.81824C5.41362 9.21674 5.03439 8.42868 4.93963 7.58331H5.77921C5.84417 8.03307 6.01329 8.46143 6.2731 8.83426C6.5329 9.20709 6.8762 9.51408 7.27564 9.73076C7.67508 9.94743 8.11961 10.0678 8.5738 10.0823C9.02799 10.0968 9.47929 10.0049 9.89171 9.81415L9.24546 9.16831C8.93513 9.25806 8.60817 9.2744 8.29043 9.21605C7.97269 9.15771 7.67288 9.02627 7.41467 8.83212C7.15647 8.63797 6.94695 8.38643 6.80268 8.09739C6.65841 7.80834 6.58333 7.4897 6.58338 7.16665V6.50581L4.24713 4.16998L4.83671 3.5804L13.0863 11.8304L12.4967 12.4196L10.5105 10.4329ZM11.7396 9.31665L11.1384 8.71582C11.3505 8.37831 11.495 7.99498 11.5538 7.58331H12.3938C12.325 8.20692 12.1 8.8031 11.7396 9.31665ZM10.5271 8.10457L6.8688 4.44623C7.1 4.05128 7.45482 3.74345 7.87844 3.57029C8.30206 3.39713 8.77092 3.36828 9.21257 3.48819C9.65423 3.6081 10.0441 3.8701 10.322 4.23372C10.5999 4.59733 10.7503 5.04234 10.75 5.49998L10.7505 7.16665C10.751 7.49242 10.6747 7.81373 10.528 8.10457H10.5271Z" fill="#CA1E14"/>
	</g>
	<defs>
		<clipPath id="clip0_131_4780">
			<rect width="10" height="10" fill="white" transform="translate(3.66669 3)"/>
		</clipPath>
	</defs>
</svg>