<svg width="12" height="12" viewBox="0 0 12 12" fill="none" xmlns="http://www.w3.org/2000/svg">
	<path d="M7 7.126V8.171C6.54746 8.011 6.06314 7.96193 5.5877 8.02789C5.11227 8.09386 4.6596 8.27294 4.26772 8.5501C3.87583 8.82726 3.55617 9.19441 3.33558 9.62071C3.11499 10.047 2.99991 10.52 3 11L2 10.9995C1.99984 10.3889 2.13946 9.78645 2.40815 9.2382C2.67684 8.68994 3.06747 8.21047 3.55011 7.83652C4.03275 7.46257 4.59459 7.20407 5.19258 7.08082C5.79057 6.95758 6.40883 6.97286 7 7.1255V7.126ZM6 6.5C4.3425 6.5 3 5.1575 3 3.5C3 1.8425 4.3425 0.5 6 0.5C7.6575 0.5 9 1.8425 9 3.5C9 5.1575 7.6575 6.5 6 6.5ZM6 5.5C7.105 5.5 8 4.605 8 3.5C8 2.395 7.105 1.5 6 1.5C4.895 1.5 4 2.395 4 3.5C4 4.605 4.895 5.5 6 5.5ZM9 8.5V7H10V8.5H11.5V9.5H10V11H9V9.5H7.5V8.5H9Z" fill="#FF3520"/>
</svg>