<svg width="36" height="36" viewBox="0 0 36 36" fill="none" xmlns="http://www.w3.org/2000/svg">
	<rect width="36" height="36" rx="18" fill="#003B5F"/>
	<path d="M21.3334 16.1333L24.8087 13.7C24.8587 13.665 24.9173 13.6443 24.9782 13.6403C25.0391 13.6363 25.0999 13.6491 25.154 13.6773C25.2082 13.7055 25.2535 13.748 25.2851 13.8002C25.3167 13.8524 25.3334 13.9123 25.3334 13.9733V22.0267C25.3334 22.0877 25.3167 22.1476 25.2851 22.1998C25.2535 22.252 25.2082 22.2945 25.154 22.3227C25.0999 22.3509 25.0391 22.3637 24.9782 22.3597C24.9173 22.3557 24.8587 22.335 24.8087 22.3L21.3334 19.8667V22.6667C21.3334 22.8435 21.2631 23.013 21.1381 23.1381C21.0131 23.2631 20.8435 23.3333 20.6667 23.3333H11.3334C11.1565 23.3333 10.987 23.2631 10.8619 23.1381C10.7369 23.013 10.6667 22.8435 10.6667 22.6667V13.3333C10.6667 13.1565 10.7369 12.987 10.8619 12.8619C10.987 12.7369 11.1565 12.6667 11.3334 12.6667H20.6667C20.8435 12.6667 21.0131 12.7369 21.1381 12.8619C21.2631 12.987 21.3334 13.1565 21.3334 13.3333V16.1333ZM21.3334 18.2393L24 20.106V15.8933L21.3334 17.76V18.2387V18.2393ZM12 14V22H20V14H12ZM13.3334 15.3333H14.6667V16.6667H13.3334V15.3333Z" fill="white"/>
</svg>