<svg width="11" height="12" viewBox="0 0 11 12" fill="none" xmlns="http://www.w3.org/2000/svg">
<path d="M6.16665 6.87508V3.66675C6.16665 3.04791 5.92081 2.45442 5.48323 2.01683C5.04564 1.57925 4.45215 1.33341 3.83331 1.33341C3.21447 1.33341 2.62098 1.57925 2.1834 2.01683C1.74581 2.45442 1.49998 3.04791 1.49998 3.66675V6.87508C1.49998 7.88069 1.89946 8.84512 2.61053 9.55619C3.32161 10.2673 4.28603 10.6667 5.29165 10.6667C6.29726 10.6667 7.26168 10.2673 7.97276 9.55619C8.68383 8.84512 9.08331 7.88069 9.08331 6.87508V1.33341H10.25V6.87508C10.25 8.19011 9.72759 9.45128 8.79772 10.3812C7.86785 11.311 6.60668 11.8334 5.29165 11.8334C3.97661 11.8334 2.71544 11.311 1.78558 10.3812C0.855707 9.45128 0.333313 8.19011 0.333313 6.87508V3.66675C0.333313 2.73849 0.702062 1.84825 1.35844 1.19187C2.01482 0.535497 2.90506 0.166748 3.83331 0.166748C4.76157 0.166748 5.65181 0.535497 6.30819 1.19187C6.96456 1.84825 7.33331 2.73849 7.33331 3.66675V6.87508C7.33331 7.41656 7.11821 7.93587 6.73532 8.31876C6.35244 8.70164 5.83313 8.91675 5.29165 8.91675C4.75016 8.91675 4.23086 8.70164 3.84797 8.31876C3.46508 7.93587 3.24998 7.41656 3.24998 6.87508V3.66675H4.41665V6.87508C4.41665 7.10714 4.50883 7.3297 4.67293 7.4938C4.83702 7.65789 5.05958 7.75008 5.29165 7.75008C5.52371 7.75008 5.74627 7.65789 5.91036 7.4938C6.07446 7.3297 6.16665 7.10714 6.16665 6.87508Z" fill="#525963"/>
</svg>
