<svg width="44" height="44" viewBox="0 0 44 44" fill="none" xmlns="http://www.w3.org/2000/svg">
<path d="M25.5469 6.03857H18.4536C14.691 6.03857 11.0826 7.53324 8.42207 10.1938C5.76155 12.8543 4.26689 16.4627 4.26689 20.2252C4.26689 23.9878 5.76155 27.5962 8.42207 30.2567C11.0826 32.9172 14.691 34.4119 18.4536 34.4119V40.6186C27.3202 37.0719 39.7336 31.7519 39.7336 20.2252C39.7336 16.4627 38.2389 12.8543 35.5784 10.1938C32.9179 7.53324 29.3094 6.03857 25.5469 6.03857V6.03857ZM22.0002 30.8652H18.4536C17.0563 30.8652 15.6727 30.59 14.3818 30.0553C13.0909 29.5206 11.918 28.7369 10.9299 27.7489C9.94192 26.7608 9.15819 25.5879 8.62348 24.297C8.08877 23.0061 7.81356 21.6225 7.81356 20.2252C7.81356 18.828 8.08877 17.4444 8.62348 16.1535C9.15819 14.8626 9.94192 13.6896 10.9299 12.7016C11.918 11.7136 13.0909 10.9299 14.3818 10.3952C15.6727 9.86045 17.0563 9.58524 18.4536 9.58524H25.5469C28.3688 9.58524 31.0751 10.7062 33.0705 12.7016C35.0659 14.697 36.1869 17.4033 36.1869 20.2252C36.1869 26.627 31.8209 30.8049 22.0002 35.2631V30.8652Z" fill="white"/>
<path d="M18.6402 18.0787C18.6402 16.9587 18.8629 14.7188 21.9814 14.7188C25.0998 14.7188 25.5082 16.9587 25.3225 18.0787L21.9814 21.4387V24.2387" stroke="white" stroke-width="1.6" stroke-linejoin="round"/>
<rect x="20.8802" y="25.3584" width="2.24" height="2.24" fill="white"/>
</svg>
