<svg width="17" height="16" viewBox="0 0 17 16" fill="none" xmlns="http://www.w3.org/2000/svg">
	<path d="M3.16666 12H4.49999V13.3333H12.5V2.66667H4.49999V4H3.16666V2C3.16666 1.82319 3.23689 1.65362 3.36192 1.5286C3.48694 1.40357 3.65651 1.33334 3.83332 1.33334H13.1667C13.3435 1.33334 13.513 1.40357 13.6381 1.5286C13.7631 1.65362 13.8333 1.82319 13.8333 2V14C13.8333 14.1768 13.7631 14.3464 13.6381 14.4714C13.513 14.5964 13.3435 14.6667 13.1667 14.6667H3.83332C3.65651 14.6667 3.48694 14.5964 3.36192 14.4714C3.23689 14.3464 3.16666 14.1768 3.16666 14V12ZM4.49999 7.33334H9.16666V8.66667H4.49999V10.6667L1.16666 8L4.49999 5.33334V7.33334Z" fill="#6A7280"/>
</svg>