<svg width="12" height="12" viewBox="0 0 12 12" fill="none" xmlns="http://www.w3.org/2000/svg">
<path d="M4.77778 2.33333V3.55556H1.72222V10.2778H8.44444V7.22222H9.66667V10.8889C9.66667 11.051 9.60228 11.2064 9.48768 11.321C9.37307 11.4356 9.21763 11.5 9.05556 11.5H1.11111C0.949034 11.5 0.793596 11.4356 0.67899 11.321C0.564385 11.2064 0.5 11.051 0.5 10.8889V2.94444C0.5 2.78237 0.564385 2.62693 0.67899 2.51232C0.793596 2.39772 0.949034 2.33333 1.11111 2.33333H4.77778ZM11.5 0.5V5.38889H10.2778V2.58572L5.51539 7.34872L4.65128 6.48461L9.41305 1.72222H6.61111V0.5H11.5Z" fill="#003B5F"/>
</svg>
