<svg width="12" height="12" viewBox="0 0 12 12" fill="none" xmlns="http://www.w3.org/2000/svg">
	<path d="M1.8705 0.704007L11.1015 5.78101C11.1407 5.80259 11.1734 5.83429 11.1961 5.87281C11.2189 5.91134 11.2309 5.95526 11.2309 6.00001C11.2309 6.04475 11.2189 6.08868 11.1961 6.1272C11.1734 6.16572 11.1407 6.19743 11.1015 6.21901L1.8705 11.296C1.83244 11.3169 1.78957 11.3276 1.74614 11.3269C1.7027 11.3263 1.66019 11.3143 1.62279 11.2922C1.58539 11.2701 1.5544 11.2386 1.53287 11.2009C1.51134 11.1631 1.50001 11.1204 1.5 11.077V0.923007C1.50001 0.879564 1.51134 0.836874 1.53287 0.799142C1.5544 0.761411 1.58539 0.729941 1.62279 0.707836C1.66019 0.68573 1.7027 0.673751 1.74614 0.67308C1.78957 0.672408 1.83244 0.683068 1.8705 0.704007ZM2.5 6.50001V9.80851L9.425 6.00001L2.5 2.19151V5.50001H5V6.50001H2.5Z" fill="white"/>
</svg>