<svg width="24" height="24" viewBox="0 0 24 24" fill="none" xmlns="http://www.w3.org/2000/svg">
<path d="M1 21.9999C1 19.8782 1.84285 17.8434 3.34315 16.3431C4.84344 14.8428 6.87827 13.9999 9 13.9999C11.1217 13.9999 13.1566 14.8428 14.6569 16.3431C16.1571 17.8434 17 19.8782 17 21.9999H15C15 20.4086 14.3679 18.8825 13.2426 17.7573C12.1174 16.6321 10.5913 15.9999 9 15.9999C7.4087 15.9999 5.88258 16.6321 4.75736 17.7573C3.63214 18.8825 3 20.4086 3 21.9999H1ZM9 12.9999C5.685 12.9999 3 10.3149 3 6.99994C3 3.68494 5.685 0.999936 9 0.999936C12.315 0.999936 15 3.68494 15 6.99994C15 10.3149 12.315 12.9999 9 12.9999ZM9 10.9999C11.21 10.9999 13 9.20994 13 6.99994C13 4.78994 11.21 2.99994 9 2.99994C6.79 2.99994 5 4.78994 5 6.99994C5 9.20994 6.79 10.9999 9 10.9999ZM21.548 0.783936C22.5062 2.71576 23.0032 4.84353 23 6.99994C23 9.23294 22.477 11.3439 21.548 13.2159L19.903 12.0199C20.6282 10.4459 21.0025 8.733 21 6.99994C21 5.20794 20.607 3.50694 19.903 1.97994L21.548 0.783936ZM18.246 3.18394C18.7454 4.39409 19.0016 5.69077 19 6.99994C19.0016 8.3091 18.7454 9.60578 18.246 10.8159L16.569 9.59593C16.8552 8.76037 17.0008 7.88314 17 6.99994C17.0011 6.11678 16.8558 5.23956 16.57 4.40394L18.246 3.18394Z" fill="#FF6539"/>
</svg>
