<svg width="14" height="15" viewBox="0 0 14 15" fill="none" xmlns="http://www.w3.org/2000/svg">
<path d="M7.7 4.5C7.7 4.1134 7.3866 3.8 7 3.8C6.6134 3.8 6.3 4.1134 6.3 4.5L7.7 4.5ZM6.3 10.5C6.3 10.8866 6.6134 11.2 7 11.2C7.3866 11.2 7.7 10.8866 7.7 10.5H6.3ZM10 8.2C10.3866 8.2 10.7 7.8866 10.7 7.5C10.7 7.1134 10.3866 6.8 10 6.8V8.2ZM4 6.8C3.6134 6.8 3.3 7.1134 3.3 7.5C3.3 7.8866 3.6134 8.2 4 8.2V6.8ZM12.3 7.5C12.3 10.4271 9.92711 12.8 7 12.8V14.2C10.7003 14.2 13.7 11.2003 13.7 7.5H12.3ZM7 12.8C4.07289 12.8 1.7 10.4271 1.7 7.5H0.3C0.3 11.2003 3.29969 14.2 7 14.2V12.8ZM1.7 7.5C1.7 4.57289 4.07289 2.2 7 2.2V0.8C3.29969 0.8 0.3 3.79969 0.3 7.5H1.7ZM7 2.2C9.92711 2.2 12.3 4.57289 12.3 7.5H13.7C13.7 3.79969 10.7003 0.8 7 0.8V2.2ZM6.3 4.5L6.3 7.5L7.7 7.5L7.7 4.5L6.3 4.5ZM6.3 7.5V10.5H7.7V7.5H6.3ZM10 6.8H7V8.2H10V6.8ZM7 6.8H4V8.2H7V6.8Z" fill="#161E29"/>
</svg>
