<svg width="16" height="16" viewBox="0 0 16 16" fill="none" xmlns="http://www.w3.org/2000/svg">
	<path d="M3.33333 10V11.3333C3.33323 11.6697 3.46027 11.9937 3.689 12.2404C3.91773 12.487 4.23123 12.6381 4.56667 12.6633L4.66667 12.6667H6.66667V14H4.66667C3.95942 14 3.28115 13.7191 2.78105 13.219C2.28095 12.7189 2 12.0406 2 11.3333V10H3.33333ZM12 6.66667L14.9333 14H13.4967L12.696 12H9.96933L9.17 14H7.734L10.6667 6.66667H12ZM11.3333 8.59L10.502 10.6667H12.1633L11.3333 8.59ZM5.33333 1.33334V2.66667H8V7.33334H5.33333V9.33334H4V7.33334H1.33333V2.66667H4V1.33334H5.33333ZM11.3333 2C12.0406 2 12.7189 2.28095 13.219 2.78105C13.719 3.28115 14 3.95943 14 4.66667V6H12.6667V4.66667C12.6667 4.31305 12.5262 3.97391 12.2761 3.72386C12.0261 3.47381 11.687 3.33334 11.3333 3.33334H9.33333V2H11.3333ZM4 4H2.66667V6H4V4ZM6.66667 4H5.33333V6H6.66667V4Z" fill="#9BA3AF"/>
</svg>