<svg width="16" height="17" viewBox="0 0 16 17" fill="none" xmlns="http://www.w3.org/2000/svg">
	<g clip-path="url(#clip0_149_5820)">
		<path d="M3.33333 10.5H2.66666C2.31304 10.5 1.9739 10.3595 1.72385 10.1095C1.4738 9.85941 1.33333 9.52027 1.33333 9.16665V3.16665C1.33333 2.81302 1.4738 2.47389 1.72385 2.22384C1.9739 1.97379 2.31304 1.83331 2.66666 1.83331H8.66666C9.02028 1.83331 9.35942 1.97379 9.60947 2.22384C9.85952 2.47389 10 2.81302 10 3.16665V3.83331M7.33333 6.49998H13.3333C14.0697 6.49998 14.6667 7.09693 14.6667 7.83331V13.8333C14.6667 14.5697 14.0697 15.1666 13.3333 15.1666H7.33333C6.59695 15.1666 6 14.5697 6 13.8333V7.83331C6 7.09693 6.59695 6.49998 7.33333 6.49998Z" stroke="#98A2B3" stroke-width="2" stroke-linecap="round" stroke-linejoin="round"/>
	</g>
	<defs>
		<clipPath id="clip0_149_5820">
			<rect width="16" height="16" fill="white" transform="translate(0 0.5)"/>
		</clipPath>
	</defs>
</svg>