<svg width="11" height="12" viewBox="0 0 11 12" fill="none" xmlns="http://www.w3.org/2000/svg">
<path d="M0.8705 0.704053L10.1015 5.78105C10.1407 5.80263 10.1734 5.83434 10.1961 5.87286C10.2189 5.91138 10.2309 5.95531 10.2309 6.00005C10.2309 6.0448 10.2189 6.08872 10.1961 6.12724C10.1734 6.16577 10.1407 6.19747 10.1015 6.21905L0.8705 11.2961C0.832437 11.317 0.789574 11.3277 0.746137 11.327C0.702699 11.3263 0.660186 11.3143 0.622788 11.2922C0.58539 11.2701 0.554398 11.2386 0.532867 11.2009C0.511335 11.1632 0.500007 11.1205 0.5 11.0771V0.923053C0.500007 0.87961 0.511335 0.836919 0.532867 0.799188C0.554398 0.761456 0.58539 0.729987 0.622788 0.707881C0.660186 0.685776 0.702699 0.673797 0.746137 0.673126C0.789574 0.672454 0.832437 0.683114 0.8705 0.704053ZM1.5 6.50005V9.80855L8.425 6.00005L1.5 2.19155V5.50005H4V6.50005H1.5Z" fill="#525963"/>
</svg>
