<svg width="28" height="28" viewBox="0 0 28 28" fill="none" xmlns="http://www.w3.org/2000/svg">
<path d="M2 14C2 7.37258 7.37258 2 14 2C20.6274 2 26 7.37258 26 14C26 20.6274 20.6274 26 14 26C7.37258 26 2 20.6274 2 14Z" fill="#F9FAFB"/>
<path d="M9.70508 16.5341V10.7727H10.8514V16.5341H9.70508ZM7.39968 14.2244V13.0824H13.161V14.2244H7.39968ZM17.9956 18.1193C17.4615 18.1193 16.9814 18.017 16.5552 17.8125C16.1319 17.6051 15.7939 17.321 15.541 16.9602C15.2882 16.5994 15.1532 16.1875 15.1362 15.7244H16.4146C16.4458 16.0994 16.612 16.4077 16.9132 16.6491C17.2143 16.8906 17.5751 17.0114 17.9956 17.0114C18.3308 17.0114 18.6277 16.9347 18.8862 16.7812C19.1475 16.625 19.3521 16.4105 19.4998 16.1378C19.6504 15.8651 19.7257 15.554 19.7257 15.2045C19.7257 14.8494 19.649 14.5327 19.4956 14.2543C19.3422 13.9759 19.1305 13.7571 18.8606 13.598C18.5936 13.4389 18.2868 13.358 17.9402 13.3551C17.676 13.3551 17.4103 13.4006 17.1433 13.4915C16.8762 13.5824 16.6603 13.7017 16.4956 13.8494L15.2896 13.6705L15.7797 9.27273H20.5779V10.402H16.8748L16.5978 12.8438H16.649C16.8194 12.679 17.0453 12.5412 17.3265 12.4304C17.6106 12.3196 17.9146 12.2642 18.2385 12.2642C18.7697 12.2642 19.2427 12.3906 19.6575 12.6435C20.0751 12.8963 20.4032 13.2415 20.6419 13.679C20.8833 14.1136 21.0027 14.6136 20.9998 15.179C21.0027 15.7443 20.8748 16.2486 20.6163 16.6918C20.3606 17.1349 20.0055 17.4844 19.551 17.7401C19.0993 17.9929 18.5808 18.1193 17.9956 18.1193Z" fill="#4A5563"/>
<path d="M14 24C8.47715 24 4 19.5228 4 14H0C0 21.732 6.26801 28 14 28V24ZM24 14C24 19.5228 19.5228 24 14 24V28C21.732 28 28 21.732 28 14H24ZM14 4C19.5228 4 24 8.47715 24 14H28C28 6.26801 21.732 0 14 0V4ZM14 0C6.26801 0 0 6.26801 0 14H4C4 8.47715 8.47715 4 14 4V0Z" fill="white"/>
</svg>
