<svg width="302" height="115" viewBox="0 0 302 115" fill="none" xmlns="http://www.w3.org/2000/svg">
<rect width="294" height="84" transform="translate(0 30.7316) rotate(-6)" fill="#013768"/>
<path d="M38.8267 66.7854L38.2924 61.7018L45.8648 60.9059L46.7969 52.4559L52.3571 51.8715L51.4249 60.3215L58.3619 59.5924L59.294 51.1424L64.8012 50.5636L63.8691 59.0136L70.5942 58.3068L71.1285 63.3903L63.3443 64.2085L62.5349 71.789L69.26 71.0821L69.7887 76.1128L61.9516 76.9365L61.0472 85.6513L55.54 86.2301L56.4444 77.5153L49.5074 78.2444L48.6031 86.9592L43.0429 87.5436L43.9473 78.8288L37.4869 79.5078L36.9582 74.4772L44.5306 73.6813L45.34 66.1008L38.8267 66.7854ZM50.9001 65.5164L50.0907 73.0969L57.0277 72.3678L57.8371 64.7873L50.9001 65.5164ZM76.2867 76.7147L82.1843 74.7564C82.3736 75.8787 82.9151 76.7854 83.8087 77.4768C84.7339 78.1291 85.9201 78.3791 87.3676 78.227C88.4619 78.112 89.2832 77.7758 89.8314 77.2185C90.3796 76.6612 90.6148 76.0119 90.5368 75.2705C90.3995 73.9643 89.375 73.2154 87.4631 73.0237L83.9376 72.5912C81.4461 72.3177 79.5102 71.5574 78.1299 70.3105C76.7849 69.0599 76.0122 67.4814 75.8119 65.575C75.5633 63.2098 76.2696 61.101 77.931 59.2489C79.6276 57.393 81.8704 56.3185 84.6593 56.0254C86.4244 55.8399 88.0056 55.9414 89.4027 56.3299C90.7962 56.6831 91.9062 57.2268 92.7329 57.9608C93.5559 58.6596 94.2042 59.3945 94.6779 60.1656C95.1516 60.9368 95.4822 61.7051 95.6697 62.4706L89.931 64.4123C89.6933 63.5093 89.1843 62.7418 88.4041 62.11C87.6591 61.4744 86.6159 61.2271 85.2744 61.3681C84.3565 61.4646 83.5882 61.7952 82.9694 62.36C82.3859 62.921 82.1331 63.5722 82.211 64.3135C82.3446 65.5844 83.2205 66.2776 84.8388 66.393L88.6291 66.7977C91.1912 67.0638 93.1996 67.8343 94.6542 69.1091C96.1441 70.3802 96.993 72.0042 97.2007 73.9812C97.4456 76.3111 96.7746 78.4162 95.1875 80.2962C93.6005 82.1762 91.2007 83.2851 87.9882 83.6227C86.1525 83.8157 84.4831 83.7235 82.98 83.346C81.4732 82.9333 80.2694 82.346 79.3683 81.5841C78.4989 80.7832 77.8079 79.9813 77.2952 79.1786C76.8141 78.3368 76.4779 77.5156 76.2867 76.7147ZM120.526 79.3998C120.311 78.7086 120.142 77.7805 120.019 76.6155C119.471 77.851 118.557 78.8393 117.279 79.5805C116.032 80.2826 114.667 80.7116 113.185 80.8674C110.113 81.1902 107.593 80.4736 105.624 78.7174C103.651 76.926 102.511 74.5653 102.203 71.6351L100.472 55.1665L107.515 54.4263L109.095 69.4652C109.258 71.0185 109.798 72.2467 110.714 73.1498C111.626 74.0176 112.859 74.3699 114.412 74.2067C115.93 74.0471 117.082 73.462 117.868 72.4514C118.651 71.4055 118.96 70.1059 118.797 68.5525L117.205 53.4078L124.248 52.6675L126.491 74.0079C126.665 75.6671 126.919 77.2288 127.251 78.693L120.526 79.3998ZM142.603 87.2518L135.56 87.992L131.764 51.8775L138.595 51.1596L138.929 54.3368C139.453 53.2109 140.384 52.2208 141.722 51.3663C143.056 50.4765 144.659 49.9333 146.53 49.7367C150.237 49.3471 153.3 50.31 155.721 52.6254C158.138 54.9056 159.556 58.0402 159.975 62.0294C160.395 66.0186 159.592 69.4223 157.569 72.2406C155.58 75.0552 152.768 76.6535 149.132 77.0357C145.672 77.3993 143.054 76.6037 141.278 74.6488L142.603 87.2518ZM151.758 68.4076C152.853 66.9362 153.281 65.0709 153.044 62.8115C152.806 60.5521 152.001 58.8343 150.628 57.658C149.291 56.4779 147.687 55.9862 145.815 56.1829C143.944 56.3795 142.462 57.2135 141.367 58.6849C140.269 60.121 139.836 61.951 140.07 64.1751C140.304 66.3991 141.109 68.117 142.486 69.3286C143.862 70.5402 145.486 71.0477 147.357 70.8511C149.228 70.6544 150.695 69.8399 151.758 68.4076ZM175.027 83.8439L167.984 84.5842L164.188 48.4697L171.019 47.7517L171.353 50.9289C171.877 49.8031 172.808 48.8129 174.146 47.9584C175.48 47.0686 177.083 46.5254 178.954 46.3288C182.661 45.9392 185.724 46.9021 188.145 49.2176C190.562 51.4977 191.98 54.6324 192.399 58.6215C192.818 62.6107 192.016 66.0145 189.992 68.8327C188.004 71.6473 185.192 73.2456 181.555 73.6278C178.096 73.9914 175.478 73.1958 173.702 71.2409L175.027 83.8439ZM184.182 64.9997C185.277 63.5283 185.705 61.663 185.468 59.4036C185.23 57.1442 184.425 55.4264 183.052 54.2501C181.715 53.07 180.11 52.5783 178.239 52.775C176.368 52.9716 174.885 53.8057 173.791 55.277C172.693 56.7131 172.26 58.5431 172.494 60.7672C172.728 62.9913 173.533 64.7091 174.91 65.9207C176.286 67.1324 177.91 67.6398 179.781 67.4432C181.652 67.2465 183.119 66.432 184.182 64.9997ZM205.544 62.808C206.988 63.9769 208.627 64.4649 210.463 64.2719C212.299 64.079 213.783 63.2626 214.917 61.8229C216.086 60.3794 216.548 58.4927 216.303 56.1627C216.058 53.8327 215.214 52.0833 213.77 50.9144C212.362 49.7418 210.74 49.2519 208.905 49.4449C207.069 49.6378 205.567 50.456 204.398 51.8995C203.264 53.3393 202.82 55.2241 203.065 57.5541C203.309 59.8841 204.136 61.6354 205.544 62.808ZM198.847 47.9857C201.184 45.0987 204.313 43.4493 208.231 43.0375C212.15 42.6256 215.535 43.5904 218.387 45.932C221.273 48.2698 222.927 51.4333 223.346 55.4225C223.765 59.4116 222.806 62.8497 220.468 65.7367C218.166 68.6199 215.055 70.2675 211.136 70.6793C207.218 71.0912 203.815 70.1282 200.928 67.7904C198.076 65.4489 196.441 62.2835 196.022 58.2943C195.602 54.3052 196.544 50.8689 198.847 47.9857ZM243.411 40.0359L244.157 47.1317C243.436 47.0647 242.722 47.0683 242.016 47.1425C240.004 47.354 238.442 48.1072 237.328 49.402C236.212 50.6616 235.79 52.5976 236.065 55.2099L237.317 67.1245L230.274 67.8648L227.536 41.8115L234.367 41.0935L234.773 44.9592C235.759 42.1073 238.087 40.4884 241.758 40.1025C242.147 40.0617 242.698 40.0395 243.411 40.0359ZM257.277 30.8154L258.095 38.5996L263.337 38.0486L263.994 44.2972L258.752 44.8482L259.898 55.7567C260.013 56.8511 260.342 57.6017 260.884 58.0087C261.427 58.4157 262.228 58.5635 263.287 58.4522C264.24 58.352 264.956 58.2054 265.436 58.0122L266.048 63.8371C265.069 64.3684 263.767 64.7193 262.143 64.89C259.601 65.1572 257.515 64.6626 255.884 63.4063C254.249 62.1148 253.3 60.2158 253.036 57.7093L251.762 45.5829L247.049 46.0782L246.392 39.8297L247.716 39.6905C249.022 39.5532 249.972 39.0787 250.565 38.2668C251.189 37.4159 251.436 36.3727 251.306 35.1371L250.922 31.4833L257.277 30.8154Z" fill="#36E3F0"/>
</svg>
